#Comment line ignore any data following # character 
#Hierarchical Translation and Rotation (.htr) file 
[Header]	
#Header keywords are followed by a single value 
FileType HTR		#Single word string
DataType HTRS		#Translation followed by rotation and scale data
FileVersion 1		#integer
NumSegments 84		#integer
NumFrames 2		#integer
DataFrameRate 30		#integer, data frame rate in this file
EulerRotationOrder ZYX
CalibrationUnits mm
RotationUnits Degrees
GlobalAxisofGravity Y
BoneLengthAxis Y
ScaleFactor 1.00
[SegmentNames&Hierarchy]
#CHILD	PARENT
MASTER GLOBAL
root MASTER
chest root
L_mid_tent01 root
R_mid_tent01 root
spine01 root
Bip01_Neck chest
L_humerus chest
R_humerus chest
weapon_bone chest
Bip01_Head Bip01_Neck
eye_left_bone Bip01_Head
eye_right_bone Bip01_Head
L_forearm L_humerus
L_front_hand L_forearm
L_weapon_bone L_forearm
L_front_hand01_01 L_front_hand
L_front_hand02_01 L_front_hand
L_front_hand03_01 L_front_hand
L_front_hand01_02 L_front_hand01_01
L_front_hand02_02 L_front_hand02_01
L_front_hand03_02 L_front_hand03_01
R_forearm R_humerus
R_front_hand R_forearm
R_weapon_bone R_forearm
R_front_hand01_01 R_front_hand
R_front_hand02_01 R_front_hand
R_front_hand03_01 R_front_hand
R_front_hand01_02 R_front_hand01_01
R_front_hand02_02 R_front_hand02_01
R_front_hand03_02 R_front_hand03_01
null_rope01_connect L_mid_tent01
Rope1_Seg01 null_rope01_connect
Rope1_Seg02 Rope1_Seg01
Rope1_Seg03 Rope1_Seg02
Rope1_Seg04 Rope1_Seg03
Rope1_Seg05 Rope1_Seg04
Rope1_Seg06 Rope1_Seg05
Rope1_Seg07 Rope1_Seg06
Rope1_Seg09 Rope1_Seg07
L_mid_hand01 Rope1_Seg09
L_mid_hand02 Rope1_Seg09
L_mid_hand03 Rope1_Seg09
null_rope02_connect R_mid_tent01
Rope2_Seg01 null_rope02_connect
Rope2_Seg02 Rope2_Seg01
Rope2_Seg03 Rope2_Seg02
Rope2_Seg04 Rope2_Seg03
Rope2_Seg05 Rope2_Seg04
Rope2_Seg06 Rope2_Seg05
Rope2_Seg07 Rope2_Seg06
Rope2_Seg09 Rope2_Seg07
R_mid_hand01 Rope2_Seg09
R_mid_hand02 Rope2_Seg09
R_mid_hand03 Rope2_Seg09
spine02 spine01
spine03 spine02
pelvis spine03
null_rope03_connect pelvis
null_rope04_connect pelvis
Rope3_Seg01 null_rope03_connect
Rope3_Seg02 Rope3_Seg01
Rope3_Seg03 Rope3_Seg02
Rope3_Seg04 Rope3_Seg03
Rope3_Seg05 Rope3_Seg04
Rope3_Seg06 Rope3_Seg05
Rope3_Seg07 Rope3_Seg06
Rope3_Seg08 Rope3_Seg07
Rope3_Seg09 Rope3_Seg08
R_rear_hand01 Rope3_Seg09
R_rear_hand02 Rope3_Seg09
R_rear_hand03 Rope3_Seg09
Rope4_Seg01 null_rope04_connect
Rope4_Seg02 Rope4_Seg01
Rope4_Seg03 Rope4_Seg02
Rope4_Seg04 Rope4_Seg03
Rope4_Seg05 Rope4_Seg04
Rope4_Seg06 Rope4_Seg05
Rope4_Seg07 Rope4_Seg06
Rope4_Seg08 Rope4_Seg07
Rope4_Seg09 Rope4_Seg08
L_rear_hand01 Rope4_Seg09
L_rear_hand02 Rope4_Seg09
L_rear_hand03 Rope4_Seg09
[BasePosition]
#SegmentName Tx, Ty, Tz, Rx, Ry, Rz, BoneLength
MASTER 0.000000 0.000000 0.000000 -90.000000 0.000000 0.000000 10.000000 
root 0.000000 0.000000 0.000000 0.000000 0.000000 0.000000 10.000000 
chest 0.000000 0.000000 0.000000 0.000000 0.000000 0.000000 10.000000 
L_mid_tent01 0.000000 0.000000 0.000000 0.000000 0.000000 0.000000 10.000000 
R_mid_tent01 0.000000 0.000000 0.000000 0.000000 0.000000 0.000000 10.000000 
spine01 0.000000 0.000000 0.000000 0.000000 0.000000 0.000000 10.000000 
Bip01_Neck 0.000000 0.000000 0.000000 0.000000 0.000000 0.000000 10.000000 
L_humerus 0.000000 0.000000 0.000000 0.000000 0.000000 0.000000 10.000000 
R_humerus 0.000000 0.000000 0.000000 0.000000 0.000000 0.000000 10.000000 
weapon_bone 0.000000 0.000000 0.000000 0.000000 0.000000 0.000000 10.000000 
Bip01_Head 0.000000 0.000000 0.000000 0.000000 0.000000 0.000000 10.000000 
eye_left_bone 0.000000 0.000000 0.000000 0.000000 0.000000 0.000000 10.000000 
eye_right_bone 0.000000 0.000000 0.000000 0.000000 0.000000 0.000000 10.000000 
L_forearm 0.000000 0.000000 0.000000 0.000000 0.000000 0.000000 10.000000 
L_front_hand 0.000000 0.000000 0.000000 0.000000 0.000000 0.000000 10.000000 
L_weapon_bone 0.000000 0.000000 0.000000 0.000000 0.000000 0.000000 10.000000 
L_front_hand01_01 0.000000 0.000000 0.000000 0.000000 0.000000 0.000000 10.000000 
L_front_hand02_01 0.000000 0.000000 0.000000 0.000000 0.000000 0.000000 10.000000 
L_front_hand03_01 0.000000 0.000000 0.000000 0.000000 0.000000 0.000000 10.000000 
L_front_hand01_02 0.000000 0.000000 0.000000 0.000000 0.000000 0.000000 10.000000 
L_front_hand02_02 0.000000 0.000000 0.000000 0.000000 0.000000 0.000000 10.000000 
L_front_hand03_02 0.000000 0.000000 0.000000 0.000000 0.000000 0.000000 10.000000 
R_forearm 0.000000 0.000000 0.000000 0.000000 0.000000 0.000000 10.000000 
R_front_hand 0.000000 0.000000 0.000000 0.000000 0.000000 0.000000 10.000000 
R_weapon_bone 0.000000 0.000000 0.000000 0.000000 0.000000 0.000000 10.000000 
R_front_hand01_01 0.000000 0.000000 0.000000 0.000000 0.000000 0.000000 10.000000 
R_front_hand02_01 0.000000 0.000000 0.000000 0.000000 0.000000 0.000000 10.000000 
R_front_hand03_01 0.000000 0.000000 0.000000 0.000000 0.000000 0.000000 10.000000 
R_front_hand01_02 0.000000 0.000000 0.000000 0.000000 0.000000 0.000000 10.000000 
R_front_hand02_02 0.000000 0.000000 0.000000 0.000000 0.000000 0.000000 10.000000 
R_front_hand03_02 0.000000 0.000000 0.000000 0.000000 0.000000 0.000000 10.000000 
null_rope01_connect 0.000000 0.000000 0.000000 0.000000 0.000000 0.000000 10.000000 
Rope1_Seg01 0.000000 0.000000 0.000000 0.000000 0.000000 0.000000 10.000000 
Rope1_Seg02 0.000000 0.000000 0.000000 0.000000 0.000000 0.000000 10.000000 
Rope1_Seg03 0.000000 0.000000 0.000000 0.000000 0.000000 0.000000 10.000000 
Rope1_Seg04 0.000000 0.000000 0.000000 0.000000 0.000000 0.000000 10.000000 
Rope1_Seg05 0.000000 0.000000 0.000000 0.000000 0.000000 0.000000 10.000000 
Rope1_Seg06 0.000000 0.000000 0.000000 0.000000 0.000000 0.000000 10.000000 
Rope1_Seg07 0.000000 0.000000 0.000000 0.000000 0.000000 0.000000 10.000000 
Rope1_Seg09 0.000000 0.000000 0.000000 0.000000 0.000000 0.000000 10.000000 
L_mid_hand01 0.000000 0.000000 0.000000 0.000000 0.000000 0.000000 10.000000 
L_mid_hand02 0.000000 0.000000 0.000000 0.000000 0.000000 0.000000 10.000000 
L_mid_hand03 0.000000 0.000000 0.000000 0.000000 0.000000 0.000000 10.000000 
null_rope02_connect 0.000000 0.000000 0.000000 0.000000 0.000000 0.000000 10.000000 
Rope2_Seg01 0.000000 0.000000 0.000000 0.000000 0.000000 0.000000 10.000000 
Rope2_Seg02 0.000000 0.000000 0.000000 0.000000 0.000000 0.000000 10.000000 
Rope2_Seg03 0.000000 0.000000 0.000000 0.000000 0.000000 0.000000 10.000000 
Rope2_Seg04 0.000000 0.000000 0.000000 0.000000 0.000000 0.000000 10.000000 
Rope2_Seg05 0.000000 0.000000 0.000000 0.000000 0.000000 0.000000 10.000000 
Rope2_Seg06 0.000000 0.000000 0.000000 0.000000 0.000000 0.000000 10.000000 
Rope2_Seg07 0.000000 0.000000 0.000000 0.000000 0.000000 0.000000 10.000000 
Rope2_Seg09 0.000000 0.000000 0.000000 0.000000 0.000000 0.000000 10.000000 
R_mid_hand01 0.000000 0.000000 0.000000 0.000000 0.000000 0.000000 10.000000 
R_mid_hand02 0.000000 0.000000 0.000000 0.000000 0.000000 0.000000 10.000000 
R_mid_hand03 0.000000 0.000000 0.000000 0.000000 0.000000 0.000000 10.000000 
spine02 0.000000 0.000000 0.000000 0.000000 0.000000 0.000000 10.000000 
spine03 0.000000 0.000000 0.000000 0.000000 0.000000 0.000000 10.000000 
pelvis 0.000000 0.000000 0.000000 0.000000 0.000000 0.000000 10.000000 
null_rope03_connect 0.000000 0.000000 0.000000 0.000000 0.000000 0.000000 10.000000 
null_rope04_connect 0.000000 0.000000 0.000000 0.000000 0.000000 0.000000 10.000000 
Rope3_Seg01 0.000000 0.000000 0.000000 0.000000 0.000000 0.000000 10.000000 
Rope3_Seg02 0.000000 0.000000 0.000000 0.000000 0.000000 0.000000 10.000000 
Rope3_Seg03 0.000000 0.000000 0.000000 0.000000 0.000000 0.000000 10.000000 
Rope3_Seg04 0.000000 0.000000 0.000000 0.000000 0.000000 0.000000 10.000000 
Rope3_Seg05 0.000000 0.000000 0.000000 0.000000 0.000000 0.000000 10.000000 
Rope3_Seg06 0.000000 0.000000 0.000000 0.000000 0.000000 0.000000 10.000000 
Rope3_Seg07 0.000000 0.000000 0.000000 0.000000 0.000000 0.000000 10.000000 
Rope3_Seg08 0.000000 0.000000 0.000000 0.000000 0.000000 0.000000 10.000000 
Rope3_Seg09 0.000000 0.000000 0.000000 0.000000 0.000000 0.000000 10.000000 
R_rear_hand01 0.000000 0.000000 0.000000 0.000000 0.000000 0.000000 10.000000 
R_rear_hand02 0.000000 0.000000 0.000000 0.000000 0.000000 0.000000 10.000000 
R_rear_hand03 0.000000 0.000000 0.000000 0.000000 0.000000 0.000000 10.000000 
Rope4_Seg01 0.000000 0.000000 0.000000 0.000000 0.000000 0.000000 10.000000 
Rope4_Seg02 0.000000 0.000000 0.000000 0.000000 0.000000 0.000000 10.000000 
Rope4_Seg03 0.000000 0.000000 0.000000 0.000000 0.000000 0.000000 10.000000 
Rope4_Seg04 0.000000 0.000000 0.000000 0.000000 0.000000 0.000000 10.000000 
Rope4_Seg05 0.000000 0.000000 0.000000 0.000000 0.000000 0.000000 10.000000 
Rope4_Seg06 0.000000 0.000000 0.000000 0.000000 0.000000 0.000000 10.000000 
Rope4_Seg07 0.000000 0.000000 0.000000 0.000000 0.000000 0.000000 10.000000 
Rope4_Seg08 0.000000 0.000000 0.000000 0.000000 0.000000 0.000000 10.000000 
Rope4_Seg09 0.000000 0.000000 0.000000 0.000000 0.000000 0.000000 10.000000 
L_rear_hand01 0.000000 0.000000 0.000000 0.000000 0.000000 0.000000 10.000000 
L_rear_hand02 0.000000 0.000000 0.000000 0.000000 0.000000 0.000000 10.000000 
L_rear_hand03 0.000000 0.000000 0.000000 0.000000 0.000000 0.000000 10.000000 
#Beginning of Data. Separated by tabs
#Fr	Tx	Ty	Tz	Rx	Ry	Rz	SF
[MASTER]
35 0.000000 0.000000 0.000000 0.001660 0.001660 0.001660 0.000000
36 0.000000 0.000000 0.000000 0.001660 0.001660 0.001660 0.000000
[root]
35 -16.048885 -62.818275 1499.978394 -91.626709 -27.643442 -90.151421 1501.379150
36 -16.400875 -62.821285 1499.996216 -91.628220 -27.659767 -90.149773 1501.400635
[chest]
35 -84.512650 -34.090519 0.000000 -4.883928 1.981831 -178.071045 91.129311
36 -84.512650 -34.090519 0.000000 -4.883928 1.981831 -178.071045 91.129311
[L_mid_tent01]
35 27.299509 22.177563 -249.917984 3.955427 36.216843 81.505745 252.380875
36 27.299503 22.177572 -249.917984 3.887457 36.225212 81.389107 252.380875
[R_mid_tent01]
35 23.228794 24.509907 226.238495 160.239456 -47.124222 88.120972 228.744751
36 23.228794 24.509907 226.238495 160.382385 -47.078480 87.958443 228.744751
[spine01]
35 -0.361383 -0.195265 0.000000 0.840989 0.446373 15.483044 0.410763
36 -0.361383 -0.195265 0.000000 0.840989 0.446373 15.483044 0.410763
[Bip01_Neck]
35 165.484543 71.581718 0.000119 175.896118 1.177290 24.871183 180.302734
36 165.484543 71.581718 0.000119 175.896118 1.177290 24.871183 180.302734
[L_humerus]
35 -13.983130 -135.272980 -120.471481 -175.938797 75.354172 -85.840668 181.680161
36 -13.983130 -135.272980 -120.471481 -175.938812 75.354172 -85.840675 181.680161
[R_humerus]
35 -13.983309 -135.273102 125.287651 -151.401703 -64.595787 -126.359894 184.909012
36 -13.983309 -135.273102 125.287651 -151.401703 -64.595810 -126.359894 184.909012
[weapon_bone]
35 235.964890 -300.705902 0.000000 0.000000 -89.951546 -128.212341 382.234833
36 235.964890 -300.705902 0.000000 0.000000 -89.951546 -128.212341 382.234833
[Bip01_Head]
35 261.355835 108.959480 -2.864203 2.248029 5.843377 -62.458344 283.173523
36 261.355835 108.959488 -2.864201 2.248029 5.843377 -62.458344 283.173523
[eye_left_bone]
35 -24.626970 125.451866 -64.772606 0.000000 -90.000000 -99.840431 143.318359
36 -24.626970 125.451866 -64.772606 0.000000 -90.000000 -99.840431 143.318359
[eye_right_bone]
35 -24.626970 125.451866 64.327362 0.000000 -89.960434 80.159386 143.117676
36 -24.626970 125.451866 64.327362 0.000000 -89.960434 80.159386 143.117676
[L_forearm]
35 322.776093 0.000000 -0.000119 0.000071 -0.002346 -93.445839 322.776093
36 322.776093 0.000000 -0.000119 0.000071 -0.002346 -93.445839 322.776093
[L_front_hand]
35 241.149185 -0.042021 -3.300071 -178.667953 -1.835447 -27.422350 241.171753
36 241.149185 -0.042021 -3.300071 -178.667953 -1.835447 -27.422350 241.171753
[L_weapon_bone]
35 156.183838 0.000000 0.000000 0.001660 0.001660 0.001660 156.183838
36 156.183838 0.000000 0.000000 0.001660 0.001660 0.001660 156.183838
[L_front_hand01_01]
35 86.095154 20.947098 -0.655860 -0.366594 -0.477154 75.385574 88.609184
36 86.095154 20.947098 -0.655860 -0.366594 -0.477154 75.385574 88.609184
[L_front_hand02_01]
35 86.935165 -11.437475 24.513514 154.403519 -59.888931 -61.371990 91.046425
36 86.935165 -11.437475 24.513514 154.403519 -59.888931 -61.371990 91.046425
[L_front_hand03_01]
35 86.637497 -14.123976 -20.424902 -153.913849 58.118122 -62.702866 90.126129
36 86.637497 -14.123976 -20.424902 -153.913849 58.118122 -62.702866 90.126129
[L_front_hand01_02]
35 71.020905 -0.000179 0.000030 0.000334 -0.002323 -106.379684 71.020905
36 71.020905 -0.000179 0.000030 0.000334 -0.002323 -106.379684 71.020905
[L_front_hand02_02]
35 71.020927 -0.000119 0.000060 0.000334 -0.002323 -106.379684 71.020927
36 71.020927 -0.000119 0.000060 0.000334 -0.002323 -106.379684 71.020927
[L_front_hand03_02]
35 71.020905 -0.000060 0.000060 0.000334 -0.002323 -106.379684 71.020905
36 71.020905 -0.000060 0.000060 0.000334 -0.002323 -106.379684 71.020905
[R_forearm]
35 322.776428 -0.000060 0.000030 0.213295 0.003866 -91.459335 322.776428
36 322.776428 -0.000060 0.000030 0.213295 0.003866 -91.459328 322.776428
[R_front_hand]
35 238.847015 -0.006795 2.210259 -1.531694 0.790216 -51.443054 238.857239
36 238.847015 -0.006795 2.210259 -1.531694 0.790216 -51.443054 238.857239
[R_weapon_bone]
35 155.664093 0.002503 -0.000030 0.003487 0.001180 -90.988930 155.664078
36 155.664093 0.002503 -0.000030 0.003487 0.001180 -90.988930 155.664078
[R_front_hand01_01]
35 87.624611 14.231146 22.918642 -154.633499 -59.950619 61.746044 91.683487
36 87.624611 14.231146 22.918642 -154.633499 -59.950619 61.746044 91.683487
[R_front_hand02_01]
35 89.356956 14.367283 -19.491137 154.602661 58.302849 63.744389 92.579636
36 89.356956 14.367283 -19.491137 154.602661 58.302849 63.744389 92.579636
[R_front_hand03_01]
35 87.286232 -22.307278 -0.143439 0.162155 -0.423168 -75.767921 90.091743
36 87.286232 -22.307278 -0.143439 0.162155 -0.423168 -75.767921 90.091743
[R_front_hand01_02]
35 71.020905 0.000060 0.000119 0.002323 -0.000334 106.381714 71.020905
36 71.020905 0.000060 0.000119 0.002323 -0.000334 106.381714 71.020905
[R_front_hand02_02]
35 71.020844 -0.000030 -0.000119 0.002323 -0.000334 106.381714 71.020836
36 71.020844 -0.000030 -0.000119 0.002323 -0.000334 106.381714 71.020836
[R_front_hand03_02]
35 71.020905 0.000000 0.000030 0.002323 -0.000334 106.381714 71.020905
36 71.020905 0.000000 0.000030 0.002323 -0.000334 106.381714 71.020905
[null_rope01_connect]
35 328.732483 0.000000 -0.000238 -137.594772 -51.920650 175.129288 328.732483
36 328.732483 0.000000 -0.000238 -137.570038 -51.922771 175.221542 328.732483
[Rope1_Seg01]
35 0.000008 0.000000 0.000000 91.336052 40.868095 107.314514 0.000008
36 0.000004 0.000000 0.000000 88.914368 42.382473 104.461945 0.000004
[Rope1_Seg02]
35 139.999863 -0.000179 0.000000 -0.748466 -5.280653 1.878050 139.999863
36 139.999863 -0.000179 0.000000 -0.518071 -4.371680 2.332940 139.999863
[Rope1_Seg03]
35 139.999924 0.000060 -0.000060 -1.639544 -7.242312 1.577436 139.999924
36 139.999924 0.000060 -0.000060 -1.109614 -5.947860 2.511045 139.999924
[Rope1_Seg04]
35 139.999924 -0.000060 -0.000119 -4.323850 -11.450105 -0.395277 139.999924
36 139.999924 -0.000060 -0.000119 -3.136508 -9.444527 1.457294 139.999924
[Rope1_Seg05]
35 139.999832 0.000119 -0.000060 1.086801 -10.936710 16.927752 139.999832
36 139.999832 0.000119 -0.000060 0.410234 -11.589965 16.697611 139.999832
[Rope1_Seg06]
35 139.999954 0.000119 -0.000060 4.398017 -3.736020 8.880032 139.999954
36 139.999954 0.000119 -0.000060 3.156505 -4.150718 8.092792 139.999954
[Rope1_Seg07]
35 139.999985 0.000060 0.000000 2.163072 -1.909361 3.953898 139.999985
36 139.999985 0.000060 0.000000 1.598076 -2.073726 3.673715 139.999985
[Rope1_Seg09]
35 121.602913 0.000119 -0.000089 -89.790619 -1.359656 0.847385 121.602913
36 121.602913 0.000119 -0.000089 -89.790619 -1.359656 0.847385 121.602913
[L_mid_hand01]
35 103.859421 1.038730 8.195221 114.880943 -53.896111 -21.070969 104.187431
36 103.859421 1.038730 8.195221 114.607506 -53.467983 -20.737377 104.187431
[L_mid_hand02]
35 105.572853 -4.139662 -10.864139 -155.524551 38.436111 -53.189579 106.211075
36 105.572853 -4.139662 -10.864139 -155.183792 38.238873 -52.641449 106.211075
[L_mid_hand03]
35 104.641464 17.579376 -3.913581 -10.797997 15.438859 58.279335 106.179977
36 104.641464 17.579376 -3.913581 -10.926791 15.350310 57.796986 106.179977
[null_rope02_connect]
35 328.732849 0.000179 -0.000119 -123.771538 41.374470 18.336151 328.732849
36 328.732849 0.000179 -0.000119 -123.747276 41.456604 18.247383 328.732849
[Rope2_Seg01]
35 0.000095 0.000153 0.000072 -53.745110 30.841082 38.151314 0.000194
36 0.000095 0.000153 0.000074 -52.948849 32.226128 40.696182 0.000195
[Rope2_Seg02]
35 139.999741 -0.000060 -0.000119 -0.658099 -2.625586 3.519805 139.999756
36 139.999741 -0.000060 -0.000119 -0.512967 -2.651027 3.204788 139.999756
[Rope2_Seg03]
35 140.000107 0.000030 0.000000 -0.823882 -4.335884 5.702173 140.000107
36 140.000107 0.000030 0.000000 -0.624282 -4.268735 5.094545 140.000107
[Rope2_Seg04]
35 139.999802 0.000000 -0.000060 -0.963954 -2.508149 16.373753 139.999802
36 139.999802 0.000000 -0.000060 -0.620554 -1.037641 14.153995 139.999802
[Rope2_Seg05]
35 139.999985 -0.000060 0.000119 -3.074382 -27.164450 17.102411 139.999985
36 139.999985 -0.000060 0.000119 -3.764158 -28.812193 12.791238 139.999985
[Rope2_Seg06]
35 139.999893 -0.000030 -0.000119 -13.947571 -19.995874 -9.501926 139.999893
36 139.999893 -0.000030 -0.000119 -11.384083 -18.876234 -6.752706 139.999893
[Rope2_Seg07]
35 139.999893 0.000060 -0.000060 -4.095634 -4.606512 -1.908887 139.999893
36 139.999893 0.000060 -0.000060 -3.508776 -4.642484 -1.336770 139.999893
[Rope2_Seg09]
35 121.338966 0.000089 -0.000060 56.755417 -0.920466 -1.310443 121.338966
36 121.338966 0.000089 -0.000060 56.777893 -0.920209 -1.310624 121.338966
[R_mid_hand01]
35 104.680779 11.144459 -10.335981 -25.544291 41.457817 56.907913 105.778534
36 104.680779 11.144459 -10.335981 -33.605095 35.724545 44.036133 105.778534
[R_mid_hand02]
35 104.070427 2.443552 8.231699 61.168697 -59.051167 25.810097 104.424065
36 104.070427 2.443552 8.231699 67.979813 -48.577206 17.406301 104.424065
[R_mid_hand03]
35 106.028137 -11.221827 -5.996406 -174.245895 14.754722 -65.697449 106.788818
36 106.028137 -11.221827 -5.996406 -171.369751 13.298684 -53.871639 106.788818
[spine02]
35 129.756927 0.001550 0.000119 -0.245322 -4.052060 -4.355547 129.756927
36 129.756927 0.001550 0.000119 -0.245322 -4.052060 -4.355547 129.756927
[spine03]
35 78.613808 0.087151 -4.898801 0.369658 4.260732 -4.885719 78.766342
36 78.613808 0.087139 -4.898801 0.369659 4.260734 -4.885720 78.766342
[pelvis]
35 169.435242 0.051022 0.000000 -0.010007 -0.191417 -1.897554 169.435257
36 169.435242 0.051022 0.000000 -0.010007 -0.191417 -1.897554 169.435257
[null_rope03_connect]
35 -1.257226 -2.466202 137.391083 -95.655838 -88.987404 -151.026016 137.418976
36 -1.257226 -2.466202 137.391083 -95.606491 -88.988571 -151.056335 137.418976
[null_rope04_connect]
35 -1.259640 -2.480268 -137.844437 -95.655838 -88.987404 -151.026016 137.872513
36 -1.259640 -2.480268 -137.844437 -95.606491 -88.988571 -151.056335 137.872513
[Rope3_Seg01]
35 0.000010 0.000002 -0.000008 -158.628372 -29.677006 -26.834097 0.000013
36 0.000010 0.000001 -0.000004 -157.566162 -30.229420 -29.270613 0.000010
[Rope3_Seg02]
35 139.999924 -0.000119 0.000060 -46.903557 5.877319 -28.835123 139.999924
36 139.999924 -0.000119 0.000060 -42.768890 4.848092 -28.877155 139.999924
[Rope3_Seg03]
35 139.999924 -0.000119 0.000119 -51.562836 45.840702 -17.695601 139.999924
36 139.999924 -0.000119 0.000119 -58.170639 43.119164 -23.874058 139.999924
[Rope3_Seg04]
35 139.999924 0.000119 0.000000 -15.696730 31.051191 -9.600001 139.999924
36 139.999924 0.000119 0.000000 -17.174894 31.800558 -9.368270 139.999924
[Rope3_Seg05]
35 139.999924 -0.000238 0.000060 -11.577313 28.253973 -15.795298 139.999924
36 139.999924 -0.000238 0.000060 -10.652335 27.588812 -12.958460 139.999924
[Rope3_Seg06]
35 139.999893 -0.000119 -0.000060 -1.073153 9.233798 -1.940859 139.999893
36 139.999893 -0.000119 -0.000060 -0.892529 8.883807 -1.292977 139.999893
[Rope3_Seg07]
35 139.999771 0.000060 -0.000119 0.022815 4.770954 -0.799288 139.999771
36 139.999771 0.000060 -0.000119 0.090087 4.647379 -0.504497 139.999771
[Rope3_Seg08]
35 139.999985 -0.000060 0.000000 0.347943 2.604665 -0.435656 139.999985
36 139.999985 -0.000060 0.000000 0.381251 2.549855 -0.281716 139.999985
[Rope3_Seg09]
35 90.185997 -0.000179 -0.000060 89.795311 -1.358474 -0.848592 90.185997
36 90.185997 -0.000179 -0.000060 89.795319 -1.358474 -0.848592 90.185997
[R_rear_hand01]
35 103.366196 -6.073594 -10.757982 -172.703766 23.626045 -61.678352 104.101845
36 103.366196 -6.073594 -10.757982 -172.703766 23.626045 -61.678352 104.101845
[R_rear_hand02]
35 100.509819 12.039542 -7.992327 -20.492241 33.636757 59.013573 101.543350
36 100.509819 12.039542 -7.992327 -20.492241 33.636757 59.013573 101.543350
[R_rear_hand03]
35 101.539970 5.215704 5.435467 78.216591 -60.982544 14.202851 101.819031
36 101.539970 5.215704 5.435467 78.216591 -60.982544 14.202851 101.819031
[Rope4_Seg01]
35 -0.000027 -0.000104 -0.000148 26.397511 -28.649298 -62.122025 0.000183
36 -0.000028 -0.000109 -0.000150 30.591396 -30.070604 -68.938751 0.000188
[Rope4_Seg02]
35 139.999985 0.000060 0.000119 -53.504101 -70.250565 82.646988 139.999985
36 139.999985 0.000060 0.000119 -58.666229 -70.868652 99.756790 139.999985
[Rope4_Seg03]
35 139.999924 0.000000 -0.000238 23.739805 -26.851780 13.648206 139.999924
36 139.999924 0.000000 -0.000238 18.113192 -15.652683 12.856162 139.999924
[Rope4_Seg04]
35 139.999985 0.000000 0.000119 20.165894 -1.414796 26.037743 139.999985
36 139.999985 0.000000 0.000119 19.731134 -2.134139 27.959251 139.999985
[Rope4_Seg05]
35 139.999802 -0.000060 -0.000119 11.603989 10.917709 30.936932 139.999802
36 139.999802 -0.000060 -0.000119 10.323113 9.004882 30.052925 139.999802
[Rope4_Seg06]
35 139.999924 0.000000 0.000060 1.095862 4.902063 9.981692 139.999924
36 139.999924 0.000000 0.000060 0.950193 4.067683 9.488745 139.999924
[Rope4_Seg07]
35 139.999802 0.000000 0.000000 0.133544 2.703909 5.374344 139.999802
36 139.999802 0.000000 0.000000 0.124947 2.342806 5.299087 139.999802
[Rope4_Seg08]
35 139.999924 0.000000 0.000119 -1.612576 1.488042 2.953951 139.999924
36 139.999924 0.000000 0.000119 -1.607751 1.299566 2.931855 139.999924
[Rope4_Seg09]
35 90.185791 0.000060 0.000060 -135.615601 2.225816 0.851109 90.185791
36 90.185791 0.000060 0.000060 -135.615601 2.225816 0.851109 90.185791
[L_rear_hand01]
35 101.696655 -8.392275 -7.654577 -19.915020 -33.950905 119.950104 102.329041
36 101.696655 -8.392275 -7.654577 -19.915020 -33.950905 119.950104 102.329041
[L_rear_hand02]
35 102.726799 -1.568258 5.773216 77.862221 61.878510 165.399200 102.900848
36 102.726799 -1.568258 5.773216 77.862228 61.878525 165.399200 102.900848
[L_rear_hand03]
35 104.552910 9.721220 -10.420293 -173.099182 -23.740307 -117.327896 105.519653
36 104.552910 9.721220 -10.420293 -173.099182 -23.740307 -117.327896 105.519653
